<?xml version="1.0" encoding="UTF-8" standalone="no"?>
<svg
        version="1.1"
        x="0px"
        y="0px"
        viewBox="0 0 92.636675 119.64295"
        enable-background="new 0 0 75.142 99.999"
        xml:space="preserve"
        width="92.636673"
        height="119.64295"
        id="svg6"
        sodipodi:docname="fire_icon.svg"
        inkscape:version="1.1.2 (0a00cf5339, 2022-02-04)"
        xmlns:inkscape="http://www.inkscape.org/namespaces/inkscape"
        xmlns:sodipodi="http://sodipodi.sourceforge.net/DTD/sodipodi-0.dtd"
        xmlns="http://www.w3.org/2000/svg"
        xmlns:svg="http://www.w3.org/2000/svg"><defs
     id="defs10"><filter
       style="color-interpolation-filters:sRGB"
       inkscape:label="Drop Shadow"
       id="filter2737"
       x="-0.31234238"
       y="-0.1391961"
       width="1.8090535"
       height="1.4910529"><feFlood
         flood-opacity="0.698039"
         flood-color="rgb(0,0,0)"
         result="flood"
         id="feFlood2727" /><feComposite
        in="flood"
        in2="SourceGraphic"
        operator="in"
        result="composite1"
        id="feComposite2729" /><feGaussianBlur
        in="composite1"
        stdDeviation="1.2"
        result="blur"
        id="feGaussianBlur2731" /><feOffset
        dx="1.7"
        dy="4.4"
        result="offset"
        id="feOffset2733" /><feComposite
        in="SourceGraphic"
        in2="offset"
        operator="over"
        result="composite2"
        id="feComposite2735" /></filter><filter
        style="color-interpolation-filters:sRGB"
        inkscape:label="Drop Shadow"
        id="filter2749"
        x="-0.038309759"
        y="-0.030927778"
        width="1.0992329"
        height="1.1091063"><feFlood
         flood-opacity="0.698039"
         flood-color="rgb(0,0,0)"
         result="flood"
         id="feFlood2739" /><feComposite
        in="flood"
        in2="SourceGraphic"
        operator="in"
        result="composite1"
        id="feComposite2741" /><feGaussianBlur
        in="composite1"
        stdDeviation="1.2"
        result="blur"
        id="feGaussianBlur2743" /><feOffset
        dx="1.7"
        dy="4.4"
        result="offset"
        id="feOffset2745" /><feComposite
        in="SourceGraphic"
        in2="offset"
        operator="over"
        result="composite2"
        id="feComposite2747" /></filter></defs><sodipodi:namedview
        id="namedview8"
        pagecolor="#ffffff"
        bordercolor="#666666"
        borderopacity="1.0"
        inkscape:pageshadow="2"
        inkscape:pageopacity="0.0"
        inkscape:pagecheckerboard="0"
        showgrid="false"
        inkscape:zoom="2"
        inkscape:cx="29.75"
        inkscape:cy="147"
        inkscape:window-width="1920"
        inkscape:window-height="1043"
        inkscape:window-x="0"
        inkscape:window-y="0"
        inkscape:window-maximized="1"
        inkscape:current-layer="svg6"
        lock-margins="true"
        fit-margin-top="5"
        fit-margin-left="5"
        fit-margin-right="5"
        fit-margin-bottom="5"><inkscape:grid
       type="xygrid"
       id="grid953"
       originx="7.9146714"
       originy="7.3548186" /></sodipodi:namedview><path
        fill="#a42821"
        stroke="#fff" stroke-width="3.5"
        d="M 64.486671,63.052819 C 66.1103,55.226604 67.881442,46.026399 62.951406,38.978973 59.620575,34.676104 53.864359,33.655585 49.672772,30.426628 44.074031,27.033113 39.437034,21.226377 39.737734,14.376989 c -0.40764,-1.038121 -2.390174,4.236191 -3.124041,5.853705 -1.964025,5.032452 -3.397148,11.667388 0.830376,15.989771 3.246212,4.325386 6.429207,10.620326 3.288797,15.785413 -3.36707,4.148795 -9.847375,0.309079 -10.67841,-4.145238 -1.634973,-2.944972 0.662535,-8.059358 -0.460785,-9.612341 -7.926264,-0.08478 -15.430231,7.841406 -13.299962,15.854399 1.179792,6.336517 6.298762,11.491448 6.151175,18.107117 -0.0095,4.787749 -5.844758,6.596267 -8.710173,2.946405 -2.433609,-1.041755 -5.3834136,-8.960247 -5.3995756,-3.125001 -1.6631215,10.48029 1.138252,22.374974 9.9484836,28.999971 15.378896,11.92077 41.146114,6.40522 49.442596,-11.476648 2.715084,-4.887692 2.449007,-10.583222 3.946863,-15.811692 1.972653,-5.724338 6.057019,-10.867757 11.383593,-13.784031 -6.18321,-3.150803 -13.712598,-1.827959 -18.57,3.094 z m -21.654,34.045 c -5.312783,0.409953 -12.281787,-1.338041 -13.488827,-7.360967 -1.132217,-4.806089 1.181575,-9.828285 5.221952,-12.529029 3.279552,-1.407802 3.277177,-6.117833 2.425516,-7.873291 7.467926,1.421156 14.992221,6.432662 16.397057,14.38248 1.457765,5.545472 -1.851781,12.118534 -7.797661,13.03721 -0.905851,0.201352 -1.831225,0.308548 -2.758037,0.343597 z"
        id="path2"
        style="filter:url(#filter2749);fill:#b92d25;fill-opacity:1"
        transform="matrix(1.1210187,0,0,1.0911225,-5.6112692,-5.4496207)" /><path
        fill="#f76b0e"
                stroke="#fff" stroke-width="3.5"

        d="m 52.111671,22.826819 c -3.293735,-2.948832 -4.233768,-8.202865 -0.902169,-11.505718 1.418783,-1.7958318 5.189295,-6.0160515 3.845576,-1.241695 -2.050965,4.839706 1.983631,8.510106 3.249593,12.747413 0.504812,2.43989 -3.424339,9.058723 -3.960625,3.710125 -0.546963,-1.341376 -1.282385,-2.612986 -2.232375,-3.710125 z"
        id="path4"
        style="filter:url(#filter2737)"
        transform="matrix(1.1210187,0,0,1.0911225,-5.6112692,-5.4496207)" /></svg>
